{
  "accessors": [
    {
      "bufferView": 2,
      "componentType": 5126,
      "count": 64556,
      "max": [
        0.8349093198776245,
        0.8511379361152649,
        0.0642879381775856
      ],
      "min": [
        -0.7250544428825378,
        0.10392184555530548,
        -0.06428717821836472
      ],
      "type": "VEC3"
    },
    {
      "bufferView": 2,
      "byteOffset": 774672,
      "componentType": 5126,
      "count": 64556,
      "max": [
        0.9953531622886658,
        0.9960975646972656,
        1.0
      ],
      "min": [
        -0.9953588247299194,
        -0.9959027171134949,
        -1.0
      ],
      "type": "VEC3"
    },
    {
      "bufferView": 1,
      "componentType": 5126,
      "count": 64556,
      "max": [
        0.8644345998764038,
        0.925517737865448
      ],
      "min": [
        0.18351295590400696,
        0.10392522811889648
      ],
      "type": "VEC2"
    },
    {
      "bufferView": 0,
      "componentType": 5125,
      "count": 374919,
      "type": "SCALAR"
    }
  ],
  "asset": {
    "extras": {
      "author": "Vijay Saini (https://sketchfab.com/VijaySaini)",
      "license": "CC-BY-4.0 (http://creativecommons.org/licenses/by/4.0/)",
      "source": "https://sketchfab.com/3d-models/batman-dart-ef2a7dbbcbfd43e28c8746b7ce967016",
      "title": "Batman Dart"
    },
    "generator": "Sketchfab-16.85.0",
    "version": "2.0"
  },
  "bufferViews": [
    {
      "buffer": 0,
      "byteLength": 1499676,
      "name": "floatBufferViews",
      "target": 34963
    },
    {
      "buffer": 0,
      "byteLength": 516448,
      "byteOffset": 1499676,
      "byteStride": 8,
      "name": "floatBufferViews",
      "target": 34962
    },
    {
      "buffer": 0,
      "byteLength": 1549344,
      "byteOffset": 2016124,
      "byteStride": 12,
      "name": "floatBufferViews",
      "target": 34962
    }
  ],
  "buffers": [
    {
      "byteLength": 3565468,
      "uri": "scene.bin"
    }
  ],
  "images": [
    {
      "uri": "textures/TrueDepthMaterial_baseColor.png"
    }
  ],
  "materials": [
    {
      "doubleSided": true,
      "name": "TrueDepthMaterial",
      "pbrMetallicRoughness": {
        "baseColorTexture": {
          "index": 0
        },
        "metallicFactor": 0.0,
        "roughnessFactor": 0.8868629150101524
      }
    }
  ],
  "meshes": [
    {
      "name": "ImagePlane_TrueDepthMaterial_0",
      "primitives": [
        {
          "attributes": {
            "NORMAL": 1,
            "POSITION": 0,
            "TEXCOORD_0": 2
          },
          "indices": 3,
          "material": 0,
          "mode": 4
        }
      ]
    }
  ],
  "nodes": [
    {
      "children": [
        1
      ],
      "matrix": [
        1.0,
        0.0,
        0.0,
        0.0,
        0.0,
        2.220446049250313e-16,
        -1.0,
        0.0,
        0.0,
        1.0,
        2.220446049250313e-16,
        0.0,
        0.0,
        0.0,
        0.0,
        1.0
      ],
      "name": "Sketchfab_model"
    },
    {
      "children": [
        2
      ],
      "matrix": [
        0.009999999776482582,
        0.0,
        0.0,
        0.0,
        0.0,
        0.0,
        0.009999999776482582,
        0.0,
        0.0,
        -0.009999999776482582,
        0.0,
        0.0,
        0.0,
        0.0,
        0.0,
        1.0
      ],
      "name": "17c3e1f624f6461fa6891b2a73c07fe5.fbx"
    },
    {
      "children": [
        3,
        5
      ],
      "name": "RootNode"
    },
    {
      "children": [
        4
      ],
      "matrix": [
        -0.0691344532945497,
        -0.2044960518417903,
        -0.9764229576104732,
        0.0,
        -0.014442939776409508,
        0.978867388761685,
        -0.20398538356827234,
        0.0,
        0.9975027964162703,
        2.220446049250313e-16,
        -0.07062698593116701,
        0.0,
        21.139307022094727,
        88.26313018798828,
        190.23924255371094,
        1.0
      ],
      "name": "CINEMA_4D_Editor"
    },
    {
      "name": "Object_4"
    },
    {
      "children": [
        6
      ],
      "matrix": [
        100.0,
        0.0,
        0.0,
        0.0,
        0.0,
        99.9999999999999,
        4.371138828673792e-06,
        0.0,
        0.0,
        -1.6308281028840313e-06,
        37.30899810791012,
        0.0,
        0.0,
        0.0,
        0.0,
        1.0
      ],
      "name": "ImagePlane"
    },
    {
      "mesh": 0,
      "name": "ImagePlane_TrueDepthMaterial_0"
    }
  ],
  "samplers": [
    {
      "magFilter": 9729,
      "minFilter": 9987,
      "wrapS": 10497,
      "wrapT": 10497
    }
  ],
  "scene": 0,
  "scenes": [
    {
      "name": "Sketchfab_Scene",
      "nodes": [
        0
      ]
    }
  ],
  "textures": [
    {
      "sampler": 0,
      "source": 0
    }
  ]
}
